<svg width="400" height="200" viewBox="0 0 400 200" xmlns="http://www.w3.org/2000/svg">
  <style>
    text { font-family: -apple-system, BlinkMacSystemFont, Segoe UI, Helvetica, Arial; }
  </style>

  <text x="10" y="20" font-size="16" fill="#c9d1d9" font-weight="600">
    Weekly GitHub Activity
  </text>

  
      <text x="10" y="50" font-size="12" fill="#c9d1d9">Sun</text>
      <rect x="100" y="40" width="24.2" height="12" fill="#58a6ff" rx="4" />
      <text x="310" y="50" font-size="12" fill="#c9d1d9">12.1%</text>
    
      <text x="10" y="72" font-size="12" fill="#c9d1d9">Mon</text>
      <rect x="100" y="62" width="26.6" height="12" fill="#58a6ff" rx="4" />
      <text x="310" y="72" font-size="12" fill="#c9d1d9">13.3%</text>
    
      <text x="10" y="94" font-size="12" fill="#c9d1d9">Tue</text>
      <rect x="100" y="84" width="26" height="12" fill="#58a6ff" rx="4" />
      <text x="310" y="94" font-size="12" fill="#c9d1d9">13%</text>
    
      <text x="10" y="116" font-size="12" fill="#c9d1d9">Wed</text>
      <rect x="100" y="106" width="46" height="12" fill="#58a6ff" rx="4" />
      <text x="310" y="116" font-size="12" fill="#c9d1d9">23%</text>
    
      <text x="10" y="138" font-size="12" fill="#c9d1d9">Thu</text>
      <rect x="100" y="128" width="39.2" height="12" fill="#58a6ff" rx="4" />
      <text x="310" y="138" font-size="12" fill="#c9d1d9">19.6%</text>
    
      <text x="10" y="160" font-size="12" fill="#c9d1d9">Fri</text>
      <rect x="100" y="150" width="11.4" height="12" fill="#58a6ff" rx="4" />
      <text x="310" y="160" font-size="12" fill="#c9d1d9">5.7%</text>
    
      <text x="10" y="182" font-size="12" fill="#c9d1d9">Sat</text>
      <rect x="100" y="172" width="26.6" height="12" fill="#58a6ff" rx="4" />
      <text x="310" y="182" font-size="12" fill="#c9d1d9">13.3%</text>
    
</svg>